<?xml version="1.0" encoding="utf-8"?><svg version="1.1" id="Layer_1" xmlns="http://www.w3.org/2000/svg" xmlns:xlink="http://www.w3.org/1999/xlink" x="0px" y="0px" viewBox="0 0 112.57 122.88" style="enable-background:new 0 0 112.57 122.88" xml:space="preserve"><style type="text/css">.st0{fill-rule:evenodd;clip-rule:evenodd;}</style><g><path class="st0" d="M38.21,53.33c0.15,0.07,0.27,0.16,0.37,0.27l4.43,5.15c1.78,2.07,3.64,4.17,5.96,5.72 c2.23,1.49,4.94,2.5,8.53,2.51c3.88,0.01,6.72-1.04,9.02-2.62c2.39-1.64,4.28-3.88,6.14-6.11l2.43-2.92 c0.29-0.35,0.4-0.47,0.51-0.6c0.3-0.35,0.63-0.73,0.96-1.15c0.08-0.1,0.19-0.19,0.32-0.26c0.4-1.29,0.7-2.65,0.91-4.07 c0.69-4.61,0.71-8.2-1.37-12.45c-1.79-3.67-4.33-5.57-7.08-6.93c2.98,3.32,5.43,6.54,4.79,9.19c-3.63-3.99-7.38-7.47-11.26-10.35 c-8.11-4.19-12.88-9.87-15-16.74C35.84,23.99,33.75,38.05,38.21,53.33L38.21,53.33z M86.27,83.93c-2.12-4.26-4.62-8.08-7.45-11.66 c-0.76-0.78-2.24-2.08-3.86-3.49c-1.73-1.51-3.6-3.15-4.98-4.51c-0.56,0.49-1.16,0.95-1.79,1.38c-2.73,1.86-6.09,3.1-10.68,3.1 c-4.29-0.01-7.52-1.2-10.17-2.97c-1.2-0.8-2.26-1.7-3.24-2.66c-1.53,1.41-3.54,3.07-5.41,4.62c-2.36,1.95-4.5,3.72-4.91,4.29 c-0.05,0.07-0.1,0.13-0.16,0.18c-2.85,3.6-5.38,7.45-7.51,11.73l9.12-0.22l3.85,6.39H13.25c-2.19,0-3.97,2.05-3.64,4.56l3.69,28.01 c-2.67,0.02-5.27,0.05-7.78,0.09c-5.36,0.09-5.92,0.48-5.35-7.16c7.21-34.12,5.11-35.61,33.28-46.66c0.99-0.88,2.3-1.96,3.67-3.09 c1.88-1.55,3.89-3.22,5.29-4.49c-0.5-0.55-0.98-1.11-1.46-1.66l-3.8-4.41l-2.82,0.07l-5.37,0.14c-4.61-5.31-4.32-16.71-3.88-23.29 c2.15-13.23,7.27-22.76,15.6-28.26C46.32,0.21,49.69,0.01,56.28,0c5.76,0,9.29-0.13,14.19,3.11c16,10.53,20.96,35.39,13.14,52.14 h-5.59c-0.12,0.15-0.24,0.29-0.36,0.42l-0.5,0.58l-2.43,2.92c-0.97,1.16-1.94,2.33-3.01,3.43c1.34,1.32,3.15,2.9,4.82,4.36 c0.79,0.69,1.54,1.35,2.21,1.95c25.03,9.98,30.52,15.78,33.58,48.05c0.56,5.95,0.51,5.69-5.2,5.81c-2.55,0.05-5.19,0.09-7.9,0.12 l3.72-28.22c0.33-2.51-1.45-4.56-3.64-4.56H73.3l3.85-6.39L86.27,83.93L86.27,83.93z M55.87,107.1c3.02,0,5.46,2.45,5.46,5.46 c0,3.02-2.45,5.46-5.46,5.46c-3.02,0-5.46-2.45-5.46-5.46C50.41,109.55,52.85,107.1,55.87,107.1L55.87,107.1z M50.01,90.1 l3.26-11.33l-2.04-2.23c-0.92-1.34-1.12-2.51-0.61-3.52c1.1-2.18,3.38-1.78,5.52-1.78c2.23,0,4.99-0.42,5.69,2.37 c0.23,0.94-0.06,1.91-0.71,2.92l-2.04,2.23l3.26,11.33H50.01L50.01,90.1z"/></g></svg>